<svg xmlns="http://www.w3.org/2000/svg" viewBox="0 0 160.843 160.843"><defs><style>.a{isolation:isolate}.b,.d{mix-blend-mode:multiply}.c{fill:#0f4d96}.d{opacity:.25}.e{fill:none;stroke:#161616;stroke-miterlimit:10;stroke-width:1.977px}.f{fill:#51b6e3}.g{fill:#fff}</style></defs><title>Artboard 1</title><g class="a"><g class="b"><circle class="c" cx="80.422" cy="80.422" r="80.422"/></g><g class="d"><path class="e" d="M17.737 52.045L52.49 16.332A4.392 4.392 0 0 1 55.638 15h49.029a4.392 4.392 0 0 1 3.148 1.329l34.753 35.714a4.392 4.392 0 0 1 1.244 3.063v50.626a4.392 4.392 0 0 1-1.244 3.063l-34.753 35.714a4.392 4.392 0 0 1-3.148 1.329H55.638a4.392 4.392 0 0 1-3.148-1.329L17.737 108.8a4.392 4.392 0 0 1-1.244-3.063V55.109a4.392 4.392 0 0 1 1.244-3.064z"/><path class="e" d="M11.594 81.256l16.285-47.1a4.392 4.392 0 0 1 2.285-2.541l44.381-20.829a4.392 4.392 0 0 1 3.414-.134l46.635 17.562a4.392 4.392 0 0 1 2.428 2.244l21.512 45.829a4.392 4.392 0 0 1 .175 3.3l-16.285 47.1a4.392 4.392 0 0 1-2.285 2.541l-44.38 20.83a4.392 4.392 0 0 1-3.414.134L35.709 132.63a4.392 4.392 0 0 1-2.428-2.244L11.769 84.558a4.392 4.392 0 0 1-.175-3.302z"/></g><path class="f" d="M68.4 110.567a8.41 8.41 0 0 1-8.4-8.4V60.77H47.117a1.306 1.306 0 0 1-1.3-1.3 8.63 8.63 0 0 1 8.4-8.627h38.224a8.123 8.123 0 0 1 8.4 8.006v42.018h12.886a1.306 1.306 0 0 1 1.3 1.3 8.41 8.41 0 0 1-8.4 8.4zm8.208-6.6a8.324 8.324 0 0 1-1.319 3l-.692.988h32.032a5.774 5.774 0 0 0 5.371-3.619l.35-.864H76.72zM61.1 54.437a8.333 8.333 0 0 1 1.516 4.8v42.929a5.79 5.79 0 1 0 11.579 0 1.306 1.306 0 0 1 1.3-1.3h22.738V58.844a5.48 5.48 0 0 0-5.79-5.4H60.407zm-6.886-.988a5.88 5.88 0 0 0-5.393 3.86l-.324.852h11.475l-.294-.836a5.8 5.8 0 0 0-5.465-3.876z"/><path class="g" d="M71.5 68.7a1.3 1.3 0 0 1 0-2.609h19.032a1.3 1.3 0 0 1 0 2.609zm0 10.257a1.3 1.3 0 1 1 0-2.609h19.032a1.3 1.3 0 1 1 0 2.609zm0 10.259a1.305 1.305 0 0 1 0-2.611h19.032a1.305 1.305 0 0 1 0 2.611z"/></g></svg>