<svg xmlns="http://www.w3.org/2000/svg" viewBox="0 0 160.843 160.843"><defs><style>.a{isolation:isolate}.b{fill:#fcb216}.c{opacity:.25;mix-blend-mode:multiply}.d{fill:none;stroke:#171717;stroke-miterlimit:10;stroke-width:1.977px}.e{fill:#0f4d96}.f{fill:#fff}</style></defs><title>Artboard 11</title><g class="a"><circle class="b" cx="79.896" cy="80.775" r="80.422"/><g class="c"><path class="d" d="M16.182 52.4l34.753-35.716a4.392 4.392 0 0 1 3.148-1.329h49.029a4.392 4.392 0 0 1 3.148 1.329L141.013 52.4a4.392 4.392 0 0 1 1.244 3.063v50.626a4.392 4.392 0 0 1-1.244 3.063l-34.753 35.713a4.392 4.392 0 0 1-3.148 1.329H54.083a4.392 4.392 0 0 1-3.148-1.329l-34.753-35.714a4.392 4.392 0 0 1-1.244-3.063V55.461a4.392 4.392 0 0 1 1.244-3.061z"/><path class="d" d="M10.039 81.609l16.285-47.1a4.392 4.392 0 0 1 2.285-2.541l44.382-20.83A4.392 4.392 0 0 1 76.405 11l46.635 17.566a4.392 4.392 0 0 1 2.428 2.244l21.512 45.829a4.392 4.392 0 0 1 .175 3.3l-16.285 47.1a4.392 4.392 0 0 1-2.285 2.541L84.2 150.411a4.392 4.392 0 0 1-3.414.134l-46.632-17.562a4.392 4.392 0 0 1-2.428-2.244L10.214 84.91a4.392 4.392 0 0 1-.175-3.301z"/></g><path class="e" d="M114.153 94.447L52.89 81.772l-4.309-.929a1.345 1.345 0 0 0-1.1.253 1.473 1.473 0 0 0-.507 1.014v3.8l-3.21-1.35a1.287 1.287 0 1 0-1.014 2.366l2.2.929-2.112.845a1.148 1.148 0 0 0-.676 1.605 1.271 1.271 0 0 0 1.183.845.633.633 0 0 0 .422-.084l3.208-1.266v12.168l-3.211-1.352a1.287 1.287 0 1 0-1.014 2.366l2.2.929-2.112.845a1.209 1.209 0 0 0-.676 1.605 1.271 1.271 0 0 0 1.183.845.633.633 0 0 0 .422-.084l3.211-1.267v3.633a1.2 1.2 0 0 0 .507 1.014 1.363 1.363 0 0 0 .76.254h.255l4.309-.929 61.262-12.675a1.426 1.426 0 0 0 .084-2.7zM53.82 106.868V84.56l53.826 11.154z"/><path class="f" d="M41.989 66.518A1.274 1.274 0 0 0 43 67.786l61.262 12.675 4.309.929h.254a1.363 1.363 0 0 0 .76-.254 1.2 1.2 0 0 0 .507-1.014v-3.633l3.211 1.267a.633.633 0 0 0 .422.084 1.271 1.271 0 0 0 1.187-.84 1.209 1.209 0 0 0-.676-1.605l-2.112-.845 2.2-.929a1.287 1.287 0 1 0-1.014-2.366L110.1 72.6V60.434l3.211 1.267a.633.633 0 0 0 .422.084 1.271 1.271 0 0 0 1.183-.845 1.148 1.148 0 0 0-.676-1.605l-2.112-.845 2.2-.929a1.287 1.287 0 1 0-1.014-2.366l-3.214 1.352v-3.8a1.473 1.473 0 0 0-.507-1.014 1.345 1.345 0 0 0-1.1-.253l-4.309.929-61.266 12.673a1.262 1.262 0 0 0-.929 1.436zm7.436-.169L103.251 55.2v22.3z"/></g></svg>