<svg xmlns="http://www.w3.org/2000/svg" viewBox="0 0 160.843 160.843"><defs><style>.a{isolation:isolate}.b{fill:#674ea0}.c,.e,.h{fill:none;stroke-miterlimit:10}.c{stroke:#fff;stroke-width:4px}.d{opacity:.5}.e,.h{stroke:#171717}.e{stroke-width:2px}.f{fill:#fed622}.g{opacity:.25;mix-blend-mode:multiply}.h{stroke-width:1.977px}</style></defs><title>Artboard 12</title><g class="a"><circle class="b" cx="80.043" cy="80.775" r="80.422"/><path class="c" d="M115.613 93.515c0 20.22-14.4 29.265-36.022 36.582-21.627-7.316-36.022-16.362-36.022-36.582V42.3h72.044z"/><g class="d"><path class="e" d="M62.618 101.714l8.486-10.607m0 0l8.487 16.972m-8.487-16.972L54.132 82.62m12.729-8.486l4.243 16.973m0 0l8.487-8.487m-8.487 8.487l16.973 2.121m0 0l-8.486 14.851m8.486-14.851l8.486 8.486m-8.486-8.486L105.05 82.62m0 0l-12.73-4.243m0 0l-4.243 14.851M79.591 82.62l8.486 10.608M79.591 82.62l4.243-12.729m0 0l8.486 8.486m0 0L79.591 82.62m0 0l-12.73-8.486m0 0l-4.243-10.608m4.243 10.608L54.132 82.62m25.459-25.459l4.243 12.73m0 0l-16.973 4.243m0 0l12.73-16.973m4.243 12.73l12.729-6.365m0 0L92.32 78.377m12.73 4.243l-8.487-19.094m0 0l-16.972-6.365m0 0l-16.973 6.365m0 0L54.132 82.62m0 0l8.486 19.094m0 0l16.973 6.365m0 0l16.972-6.365m0 0l8.487-19.094"/></g><circle class="f" cx="66.861" cy="74.134" r="2.122"/><circle class="f" cx="71.104" cy="91.107" r="2.122"/><circle class="f" cx="88.077" cy="93.228" r="2.122"/><circle class="f" cx="79.591" cy="82.62" r="2.122"/><circle class="f" cx="83.834" cy="69.891" r="2.122"/><circle class="f" cx="79.591" cy="57.161" r="2.122"/><circle class="f" cx="62.618" cy="63.526" r="2.122"/><circle class="f" cx="96.563" cy="63.526" r="2.122"/><circle class="f" cx="92.32" cy="78.377" r="2.122"/><circle class="f" cx="96.563" cy="101.714" r="2.122"/><circle class="f" cx="62.618" cy="101.714" r="2.122"/><circle class="f" cx="105.05" cy="82.62" r="2.122"/><circle class="f" cx="79.591" cy="108.079" r="2.122"/><circle class="f" cx="54.132" cy="82.62" r="2.122"/><g class="g"><path class="h" d="M16.478 52.4l34.753-35.716a4.392 4.392 0 0 1 3.148-1.329h49.029a4.392 4.392 0 0 1 3.148 1.329L141.309 52.4a4.392 4.392 0 0 1 1.244 3.063v50.626a4.392 4.392 0 0 1-1.244 3.063l-34.753 35.714a4.392 4.392 0 0 1-3.148 1.329H54.379a4.392 4.392 0 0 1-3.148-1.329l-34.753-35.715a4.392 4.392 0 0 1-1.244-3.063V55.461a4.392 4.392 0 0 1 1.244-3.061z"/><path class="h" d="M10.335 81.609l16.285-47.1a4.392 4.392 0 0 1 2.28-2.538l44.387-20.833A4.392 4.392 0 0 1 76.7 11l46.635 17.562a4.392 4.392 0 0 1 2.428 2.244l21.512 45.829a4.392 4.392 0 0 1 .175 3.3l-16.285 47.1a4.392 4.392 0 0 1-2.285 2.541L84.5 150.411a4.392 4.392 0 0 1-3.414.134L34.45 132.983a4.392 4.392 0 0 1-2.428-2.244L10.51 84.91a4.392 4.392 0 0 1-.175-3.301z"/></g></g></svg>