<svg xmlns="http://www.w3.org/2000/svg" viewBox="0 0 161.138 161.138"><defs><style>.a{isolation:isolate}.b,.d{mix-blend-mode:multiply}.c{fill:#0b846a}.d{opacity:.25}.e,.j{fill:none;stroke:#171717}.e{stroke-miterlimit:10;stroke-width:1.977px}.f{fill:#efcc2f}.g{fill:#fff}.h{fill:#52b8e4}.i{opacity:.4}.j{stroke-linecap:round;stroke-linejoin:round;stroke-width:4.25px}.k{fill:#171717}</style></defs><title>Artboard 14</title><g class="a"><g class="b"><circle class="c" cx="80.19" cy="80.922" r="80.569"/></g><g class="d"><path class="e" d="M17.125 52.493l34.817-35.779a4.4 4.4 0 0 1 3.158-1.331h49.118a4.4 4.4 0 0 1 3.154 1.332l34.817 35.779a4.4 4.4 0 0 1 1.247 3.069v50.719a4.4 4.4 0 0 1-1.247 3.069l-34.817 35.779a4.4 4.4 0 0 1-3.154 1.332H55.1a4.4 4.4 0 0 1-3.154-1.332l-34.821-35.78a4.4 4.4 0 0 1-1.247-3.069V55.562a4.4 4.4 0 0 1 1.247-3.069z"/><path class="e" d="M10.971 81.757l16.314-47.182a4.4 4.4 0 0 1 2.289-2.545l44.464-20.872a4.4 4.4 0 0 1 3.421-.135l46.72 17.594a4.4 4.4 0 0 1 2.433 2.248l21.551 45.912a4.4 4.4 0 0 1 .175 3.308l-16.314 47.183a4.4 4.4 0 0 1-2.289 2.545l-44.464 20.872a4.4 4.4 0 0 1-3.421.135l-46.72-17.594a4.4 4.4 0 0 1-2.433-2.248L11.146 85.065a4.4 4.4 0 0 1-.175-3.308z"/></g><path class="f" d="M61.627 99.881a1.691 1.691 0 0 1-1.093-.336 2.118 2.118 0 0 1-.757-1.682L61.206 86a1.768 1.768 0 0 1 1.093-1.43 1.692 1.692 0 0 1 1.766.252l9.589 7.15a2.118 2.118 0 0 1 .757 1.682 1.768 1.768 0 0 1-1.093 1.43L62.384 99.8c-.337 0-.589.081-.757.081z"/><path class="g" d="M91.691 87.189L88.765 90.9a4.243 4.243 0 0 0 .642 5.995l3.711 2.926a4.565 4.565 0 0 0 2.641.928 4.412 4.412 0 0 0 3.354-1.57l2.926-3.711a4.243 4.243 0 0 0-.642-5.995l-3.711-2.926a4.565 4.565 0 0 0-2.641-.928 4.412 4.412 0 0 0-3.354 1.57z"/><path class="h" d="M71.2 77.3c.72 2.481 3.361 4 6.883 4a11.756 11.756 0 0 0 3.681-.56 12.169 12.169 0 0 0 5.522-3.2 5.642 5.642 0 0 0 1.681-5.282c-.72-2.481-3.361-4-6.883-4a11.756 11.756 0 0 0-3.681.56 12.169 12.169 0 0 0-5.522 3.2A5.588 5.588 0 0 0 71.2 77.3z"/><g class="i"><rect class="j" x="45.904" y="57.925" width="69.105" height="52.283" rx="11.354" ry="11.354"/><path class="j" d="M59.589 58.289v7.031m41.735-7.031v7.031m-32.597-7.796v-6.77a2.921 2.921 0 0 1 2.921-2.921h17.617a2.921 2.921 0 0 1 2.921 2.921v6.77"/><rect class="k" x="53.667" y="110.861" width="7.26" height="2.891" rx="1.016" ry="1.016"/><rect class="k" x="99.986" y="110.861" width="7.26" height="2.891" rx="1.016" ry="1.016"/></g></g></svg>