<svg xmlns="http://www.w3.org/2000/svg" viewBox="0 0 161.138 161.138"><defs><style>.a{isolation:isolate}.b,.d{mix-blend-mode:multiply}.c{fill:#006b52}.d{opacity:.25}.e,.f{fill:none;stroke-miterlimit:10}.e{stroke:#111;stroke-width:1.977px}.f{stroke:#fff;stroke-width:4px}.g{fill:#b89830}</style></defs><title>Artboard 15</title><g class="a"><g class="b"><circle class="c" cx="80.19" cy="80.922" r="80.569"/></g><g class="d"><path class="e" d="M17.39 52.493l34.817-35.779a4.4 4.4 0 0 1 3.154-1.332h49.118a4.4 4.4 0 0 1 3.154 1.332l34.817 35.779a4.4 4.4 0 0 1 1.247 3.069v50.719a4.4 4.4 0 0 1-1.247 3.069l-34.817 35.779a4.4 4.4 0 0 1-3.154 1.332H55.361a4.4 4.4 0 0 1-3.154-1.332L17.39 109.35a4.4 4.4 0 0 1-1.247-3.069V55.562a4.4 4.4 0 0 1 1.247-3.069z"/><path class="e" d="M11.236 81.757L27.55 34.575a4.4 4.4 0 0 1 2.289-2.545L74.3 11.158a4.4 4.4 0 0 1 3.421-.135l46.72 17.594a4.4 4.4 0 0 1 2.433 2.248l21.551 45.912a4.4 4.4 0 0 1 .175 3.308l-16.314 47.183a4.4 4.4 0 0 1-2.286 2.546l-44.464 20.871a4.4 4.4 0 0 1-3.421.135L35.4 133.226a4.4 4.4 0 0 1-2.433-2.248L11.412 85.065a4.4 4.4 0 0 1-.176-3.308z"/></g><path class="f" d="M78.327 94.412c.3 1.1.8 1.1 1.1 0l8.16-29.555a1.5 1.5 0 0 0-1.523-2H71.69a1.5 1.5 0 0 0-1.522 2z"/><path class="g" d="M84.084 38.7a.3.3 0 0 1 .2.523c-1.237 1.1-3.915 4.091-2.08 8.1 2.338 5.1.83 8.314-.442 9.247a5.961 5.961 0 0 1-3.441.743s-4.566.153-4.923-5.793c-.304-5.025 3.633-13.088 10.686-12.82z"/><path class="g" d="M93.04 118.609a.791.791 0 0 1-.92.646 79.973 79.973 0 0 1-12.89-3.418l-.223-.082-.223.082a79.966 79.966 0 0 1-12.89 3.418.791.791 0 0 1-.92-.646l-.056-.334a.785.785 0 0 1 .636-.9 83.381 83.381 0 0 0 9.07-2.169l1.652-.5-1.569-.719a46.405 46.405 0 0 1-10.886-6.835l-.426-.365-.425.366a7.729 7.729 0 0 1-5.119 2.029c-5.141 0-10.139-5.229-12.378-7.932a.79.79 0 0 1 .383-1.258 21.41 21.41 0 0 1 6.314-1.054 14.034 14.034 0 0 1 3.441.409l.814.206v-1.11l-.137-.141a35.386 35.386 0 0 1-2.4-4.771l-.233-.568-.581.2a6.332 6.332 0 0 1-2.036.352c-4.684 0-7.89-5.772-9.266-8.847a.783.783 0 0 1 .708-1.106h.012a13.727 13.727 0 0 1 8.019 2.157l1.263.887-.243-1.524A43.547 43.547 0 0 1 51 78.66v-.552l-.545-.087c-5.123-.816-5.5-7.483-5.338-10.93a.791.791 0 0 1 1.164-.657 13.124 13.124 0 0 1 4.347 3.527l.9 1.182.266-1.459a44.016 44.016 0 0 1 1.063-4.547l.054-.182-.051-.182c-1.226-4.352 3.788-7.552 6.66-8.991a.789.789 0 0 1 1.138.7c.048 6.5-3.5 8.775-5.769 9.567l-.317.111-.095.321a41.944 41.944 0 0 0-1.415 8.087l-.162 1.945 1.3-1.455a23.754 23.754 0 0 1 5.616-4.4.791.791 0 0 1 1.182.6c1.043 9.388-4.507 12.306-7.074 13.145l-.535.175.094.555c.077.451.158.9.249 1.338a35.5 35.5 0 0 0 2.216 7.013l.8 1.843.432-1.964a24.191 24.191 0 0 1 3.247-7.322.786.786 0 0 1 1.322 0c2.4 3.641 5.142 10.019-.029 15.508l-.412.438.4.447a36.5 36.5 0 0 0 4.566 4.264l1.359 1.069-.313-1.7a24.9 24.9 0 0 1-.011-7.538.791.791 0 0 1 1.193-.567c7.67 4.667 7.489 10.394 6.624 13.519l-.148.536.505.232a56.16 56.16 0 0 0 3.288 1.386l.235.091.235-.091c1.008-.39 1.91-.765 2.756-1.145l.567-.254-.226-.579c-1.2-3.077-1.974-8.844 5.374-14.241a.79.79 0 0 1 1.238.457 22.4 22.4 0 0 1 .393 9.192l-.375 1.677 1.394-1.005a37.3 37.3 0 0 0 5.941-5.3l.4-.447-.412-.437c-5.172-5.49-2.432-11.867-.03-15.508a.786.786 0 0 1 1.323 0 24.224 24.224 0 0 1 3.247 7.324l.432 1.967.8-1.846a35.638 35.638 0 0 0 2.233-7.1c.084-.415.16-.832.232-1.254l.095-.556-.523-.18c-2.566-.839-8.114-3.76-7.072-13.144a.791.791 0 0 1 1.182-.6 23.8 23.8 0 0 1 5.614 4.4l1.3 1.455-.157-1.941a42.064 42.064 0 0 0-1.412-8.086l-.094-.322-.317-.111c-2.267-.791-5.819-3.071-5.772-9.567a.789.789 0 0 1 1.138-.7c2.87 1.437 7.879 4.634 6.662 8.982l-.051.182.054.181a44.511 44.511 0 0 1 1.062 4.554l.267 1.46.9-1.182a13.1 13.1 0 0 1 4.343-3.525.791.791 0 0 1 1.164.657c.155 3.448-.222 10.114-5.337 10.929l-.545.087-.005.552a43.562 43.562 0 0 1-.532 6.42l-.243 1.524 1.263-.887a13.726 13.726 0 0 1 8.019-2.157h.011a.783.783 0 0 1 .708 1.106c-1.378 3.075-4.587 8.847-9.265 8.847a6.312 6.312 0 0 1-2.036-.351l-.581-.2-.233.568a35.49 35.49 0 0 1-2.406 4.785l-.125.141v1.096l.814-.207a14 14 0 0 1 3.441-.408 21.41 21.41 0 0 1 6.314 1.054.79.79 0 0 1 .383 1.258c-2.239 2.7-7.237 7.932-12.378 7.932a7.72 7.72 0 0 1-5.119-2.029l-.425-.366-.426.365a46.413 46.413 0 0 1-10.886 6.835l-1.569.719 1.652.5a83.432 83.432 0 0 0 9.07 2.169.785.785 0 0 1 .636.9zM68.946 101.88c-.082 3.393.49 5.884 1.7 7.4a4.428 4.428 0 0 0 1.95 1.4l.725.269.144-.76a8.453 8.453 0 0 0-.224-4.172 10.353 10.353 0 0 0-3.212-4.617l-1.049-.915zm17.548-.906a10.36 10.36 0 0 0-2.834 4.993 8.532 8.532 0 0 0 .166 4.1l.209.744.7-.33a4.431 4.431 0 0 0 1.828-1.568c1.35-2.031 1.317-5.234 1.052-7.564l-.157-1.378zm19.349-.122a10.36 10.36 0 0 0-7.753 3.1 10.892 10.892 0 0 0-1.176 1.446l-.374.55.557.364a5.538 5.538 0 0 0 3.065.955 8.607 8.607 0 0 0 4.066-1.212 20.416 20.416 0 0 0 4-2.992c.3-.281.6-.568.873-.851l.861-.885-1.216-.214a16.855 16.855 0 0 0-2.902-.261zm-53.674 0a16.913 16.913 0 0 0-2.9.269l-1.223.216.871.886c.3.307.62.617.955.929 2.914 2.7 5.675 4.124 7.983 4.124a5.528 5.528 0 0 0 3.066-.956l.556-.364-.375-.55a11.049 11.049 0 0 0-1.175-1.445 10.364 10.364 0 0 0-7.758-3.112zm44.149-11.07a10.388 10.388 0 0 0-1 5.557 8.453 8.453 0 0 0 1.542 3.889l.445.626.546-.539a4.241 4.241 0 0 0 1.194-2.1c.456-1.852-.092-4.5-1.545-7.453l-.612-1.245zm-35.854.079c-1.421 2.926-1.951 5.538-1.5 7.366a4.27 4.27 0 0 0 1.194 2.088l.547.539.445-.626a8.463 8.463 0 0 0 1.541-3.889 10.381 10.381 0 0 0-1-5.557l-.565-1.253zm51.855-4.095a8.593 8.593 0 0 0-5.535 3.315 8.151 8.151 0 0 0-.877 1.584l-.324.774.83.124a3.862 3.862 0 0 0 .561.042 4.736 4.736 0 0 0 2.941-1.16 13.027 13.027 0 0 0 2.748-3.152c.12-.187.233-.365.344-.549l.77-1.272zm-67.313.982q.166.27.339.54a13.015 13.015 0 0 0 2.755 3.155 4.735 4.735 0 0 0 2.94 1.16 3.862 3.862 0 0 0 .561-.042l.833-.125-.334-.776a8.3 8.3 0 0 0-.875-1.581 8.6 8.6 0 0 0-5.535-3.315l-1.47-.3zm53.836-12.119a9.69 9.69 0 0 0 1.562 4.81 7.99 7.99 0 0 0 2.84 2.521l.718.387.221-.785a3.992 3.992 0 0 0 .036-2.08c-.415-1.717-1.913-3.593-4.331-5.423l-1.156-.876zm-40.715-.571c-2.388 1.807-3.927 3.737-4.334 5.435a3.929 3.929 0 0 0 .04 2.07l.222.783.717-.385a7.981 7.981 0 0 0 2.84-2.521 9.7 9.7 0 0 0 1.562-4.81l.111-1.447zm-10.994-3.367a8.271 8.271 0 0 0 1.558 4.324 3.118 3.118 0 0 0 .8.684l.989.584v-1.149a6.53 6.53 0 0 0-.472-2.443 7.5 7.5 0 0 0-1.77-2.549L46.9 68.85zm62.644-.549a7.5 7.5 0 0 0-1.77 2.549 6.53 6.53 0 0 0-.472 2.443v1.149l.989-.584a3.223 3.223 0 0 0 .806-.689 8.288 8.288 0 0 0 1.553-4.32l.226-1.838zm-52.568-10.7a7.03 7.03 0 0 0-2.491 3.066 3.647 3.647 0 0 0-.108.421l-.28 1.47 1.269-.794a6.061 6.061 0 0 0 1.5-1.325 6.754 6.754 0 0 0 1.134-2.117l.686-2.053zm42.572.723a6.826 6.826 0 0 0 1.135 2.116 6.075 6.075 0 0 0 1.5 1.324l1.262.79-.274-1.464a3.2 3.2 0 0 0-.112-.434 6.932 6.932 0 0 0-2.489-3.056L99.086 58.1z"/></g></svg>