<svg xmlns="http://www.w3.org/2000/svg" viewBox="0 0 162.355 162.355"><defs><style>.a{isolation:isolate}.b,.i{mix-blend-mode:multiply}.c{fill:#0d7fbf}.d{fill:#fdb913}.e,.h,.j{fill:none;stroke-miterlimit:10}.e,.f,.h{stroke:#fff}.e{stroke-width:5.384px}.f,.g{fill:#067eb5;stroke-linecap:round;stroke-linejoin:round}.f{stroke-width:4px}.g{stroke:#fdb913}.g,.h{stroke-width:5px}.i{opacity:.25}.j{stroke:#171717;stroke-width:1.977px}</style></defs><title>Artboard 16</title><g class="a"><g class="b"><circle class="c" cx="81.178" cy="81.178" r="81.178"/></g><rect class="d" x="76.403" y="76.128" width="10.235" height="13.646" rx="2.406" ry="2.406"/><rect class="d" x="78.109" y="38.75" width="6.823" height="13.646" rx="2.098" ry="2.098"/><path class="d" d="M68.782 64.32a7.731 7.731 0 0 0-7.731 7.731v32.3a.907.907 0 0 0 .907.907h45.947a.907.907 0 0 1 .907.907v8.42a.907.907 0 0 1-.907.907h-52.77a.907.907 0 0 1-.907-.907V72.05A14.554 14.554 0 0 1 68.782 57.5h32.3a.907.907 0 0 1 .907.907v5.008a.907.907 0 0 1-.907.907z"/><path class="e" d="M61.051 117.199h6.823m27.293 0h6.823"/><rect class="f" x="74.697" y="48.967" width="13.646" height="33.203" rx="4.53" ry="4.53"/><circle class="g" cx="74.697" cy="61.823" r="7.534"/><path class="h" d="M67.874 100.141h40.939"/><g class="i"><path class="j" d="M17.636 52.535l35.08-36.049a4.434 4.434 0 0 1 3.178-1.342h49.489a4.434 4.434 0 0 1 3.178 1.342l35.08 36.049a4.434 4.434 0 0 1 1.256 3.092v51.1a4.434 4.434 0 0 1-1.256 3.092L108.56 145.87a4.434 4.434 0 0 1-3.178 1.342H55.894a4.434 4.434 0 0 1-3.178-1.342l-35.08-36.049a4.434 4.434 0 0 1-1.256-3.092v-51.1a4.434 4.434 0 0 1 1.256-3.094z"/><path class="j" d="M11.436 82.02l16.437-47.54a4.434 4.434 0 0 1 2.306-2.565l44.8-21.029a4.434 4.434 0 0 1 3.446-.136L125.5 28.478a4.434 4.434 0 0 1 2.451 2.265L149.664 77a4.434 4.434 0 0 1 .177 3.333L133.4 127.875a4.434 4.434 0 0 1-2.306 2.565L86.3 151.468a4.434 4.434 0 0 1-3.446.136l-47.077-17.727a4.434 4.434 0 0 1-2.451-2.265l-21.714-46.26a4.434 4.434 0 0 1-.176-3.332z"/></g></g></svg>