<svg xmlns="http://www.w3.org/2000/svg" viewBox="0 0 162.355 162.355"><defs><style>.a{isolation:isolate}.b,.f{mix-blend-mode:multiply}.c{fill:#52b8e4}.d{fill:#fff}.e{fill:#066d89}.f{opacity:.75}.g{fill:none;stroke:#309b9b;stroke-miterlimit:10;stroke-width:2px}</style></defs><title>Artboard 17</title><g class="a"><g class="b"><circle class="c" cx="81.178" cy="81.178" r="81.178"/></g><path class="d" d="M56.715 78.661s-.157-3.452 4.472-3.844c0-.157 12.16.078 12.16.078s1.569.314 1.569 3.609c-.471 1.569-.706 6.2-3.53 9.1-.785.392-1.334.314-2.824.392.078.078-9.022-.078-9.022-.078s-1.961-.549-2.04-1.961c-.079-.157-.785-7.296-.785-7.296zm43.853 0s.157-3.452-4.472-3.844c0-.157-12.16.078-12.16.078s-1.569.314-1.569 3.609c.471 1.569.706 6.2 3.53 9.1.785.392 1.334.314 2.824.392-.078.078 9.022-.078 9.022-.078s1.961-.549 2.04-1.961c.079-.157.785-7.296.785-7.296z"/><path class="e" d="M70.565 79.063c-4.068-1.819-8.234.219-8.409.307a1.143 1.143 0 0 0 1.023 2.045c.033-.016 3.362-1.649 6.453-.265a1.143 1.143 0 1 0 .933-2.088zm24.116.307c-.176-.088-4.342-2.126-8.409-.307a1.143 1.143 0 1 0 .933 2.088c3.065-1.371 6.423.25 6.457.266a1.143 1.143 0 0 0 1.019-2.047zm-8.701 24.439c-5.61 2.087-12.864.169-12.937.15a1.143 1.143 0 0 0-.6 2.207 30.785 30.785 0 0 0 7.355.91 20.194 20.194 0 0 0 6.978-1.124 1.143 1.143 0 1 0-.8-2.142z"/><path class="e" d="M111.881 71.469a2.11 2.11 0 0 0-1.243-1.641 2.732 2.732 0 0 0-1.8-.03 32.524 32.524 0 0 0-.569-8.7 85.881 85.881 0 0 0-2.194-9.483A14.332 14.332 0 0 0 100.6 44a45.126 45.126 0 0 0-15.1-7.74 22.556 22.556 0 0 0-5.972-.873c-10.1 0-20.934 8.65-21.389 9.017-4.345 3.5-5.867 7.786-6.813 13.147l-.041.233c-.8 4.491-1.669 9.546-.91 14.3a2.738 2.738 0 0 0-1.81.029 2.114 2.114 0 0 0-1.243 1.642 11.056 11.056 0 0 0 .016 4.379c.613 4.269.921 5.864 1.872 10.318.471 2.209 1.269 3.545 2.441 4.081a2.639 2.639 0 0 0 1.105.24 2.91 2.91 0 0 0 .3-.02c.271 3.461.875 8.651 2.173 11.678 7.383 17.227 17.115 20.843 23.981 20.843 14.487 0 20.369-13.761 20.38-13.8.226-.424 5.534-10.432 6.22-15.435.093-.675.172-1.475.245-2.371a3.053 3.053 0 0 0 .435.035 2.655 2.655 0 0 0 1.114-.239c1.093-.5 1.828-1.7 2.245-3.656a73.133 73.133 0 0 0 1.114-8.048c.161-1.6.327-3.261.562-4.89.044-.3.095-.615.146-.933a12.9 12.9 0 0 0 .21-4.468zM53.54 58.183l.041-.234c.882-4.993 2.193-8.7 6-11.765.106-.085 10.658-8.511 19.955-8.511a20.33 20.33 0 0 1 5.371.792 42.884 42.884 0 0 1 14.319 7.358 12.026 12.026 0 0 1 4.667 6.462 83.841 83.841 0 0 1 2.131 9.23 26.564 26.564 0 0 1 .258 10.119 1.109 1.109 0 0 0-.255.167L101 76.771a4.608 4.608 0 0 0-.966-1.6 4.557 4.557 0 0 0-3.28-1.338c-.75-.022-9.753-.283-12.7-.141a3.056 3.056 0 0 0-2.3 1.1 3.654 3.654 0 0 0-.669 1.35 33.445 33.445 0 0 0-5.272-.084 3.606 3.606 0 0 0-.639-1.265 3.056 3.056 0 0 0-2.3-1.1c-2.945-.141-11.948.119-12.7.141a4.518 4.518 0 0 0-3.28 1.338 4.652 4.652 0 0 0-1.039 1.783l-2.631-2.021c-.16-.864-.322-1.71-.483-2.514-.912-4.56-.041-9.479.799-14.237zm45.574 21.7c-.441 5.368-.968 6.9-2.452 7.108-4.6.658-10 .54-10.942-.972a15.155 15.155 0 0 1-2.266-5.469 13.918 13.918 0 0 0-.073-.487c-.133-.835-.486-3.051.144-3.826a.775.775 0 0 1 .635-.263 54.964 54.964 0 0 1 2.4-.039c3.941 0 10.081.18 10.158.183h.082a2.321 2.321 0 0 1 1.605.664 4.009 4.009 0 0 1 .71 3.099zm-25.574.18c-.031.195-.057.36-.073.487a15.155 15.155 0 0 1-2.267 5.466c-.94 1.512-6.338 1.629-10.942.972-1.484-.212-2.011-1.74-2.452-7.108a4.009 4.009 0 0 1 .707-3.1 2.333 2.333 0 0 1 1.593-.664h.094c.1 0 9.643-.282 12.559-.143a.775.775 0 0 1 .635.263c.632.774.28 2.99.147 3.824zm-20.932 10.4c-.337-.155-.818-.887-1.159-2.48-.937-4.394-1.24-5.966-1.843-10.167a11.058 11.058 0 0 1-.187-2.449.824.824 0 0 1 1.251-.653l.011.007a1.088 1.088 0 0 0 .189.076 114.847 114.847 0 0 1 1.986 14.45v.012c0 .082.018.527.054 1.216a.485.485 0 0 1-.301-.018zm50.942 5.273c-.631 4.6-5.92 14.571-6.019 14.769-.213.51-5.376 12.492-18.316 12.492-8.858 0-16.423-6.728-21.879-19.457-1.842-4.3-2.186-14.1-2.194-14.348a92.631 92.631 0 0 0-1.334-10.92l1.714 1.317c.006.166-.01.315 0 .488.366 4.451.712 8.656 4.408 9.184a40.512 40.512 0 0 0 5.54.425c3.164 0 6.464-.515 7.669-2.453a16.711 16.711 0 0 0 2.592-6.392c.013-.107.036-.246.063-.411a18.393 18.393 0 0 0 .238-2.083 29.978 29.978 0 0 1 4.849.089 18.821 18.821 0 0 0 .236 1.995c.027.165.049.3.063.411a16.711 16.711 0 0 0 2.592 6.392c1.2 1.938 4.5 2.453 7.669 2.453a40.512 40.512 0 0 0 5.54-.425c3.7-.528 4.042-4.732 4.408-9.184.015-.18 0-.336 0-.509.028-.023.062-.032.088-.058l3.82-3.776a116.637 116.637 0 0 0-1.209 12.88c-.154 2.8-.308 5.453-.537 7.115zm5.872-20.164c-.056.334-.109.662-.155.98-.24 1.676-.41 3.359-.573 4.986a70.712 70.712 0 0 1-1.074 7.8c-.281 1.319-.682 1.926-.962 2.055a.644.644 0 0 1-.435-.014q.079-1.249.158-2.633c.3-5.142.672-11.543 1.681-14.811.151-.487.266-.976.374-1.465.029-.015.061-.017.088-.035l.011-.007a.776.776 0 0 1 1.183.678 18.81 18.81 0 0 1-.295 2.46z"/><path class="e" d="M61.748 61.3a1.138 1.138 0 0 0 .444-.09 15.9 15.9 0 0 1 5.443-1.195 21.428 21.428 0 0 1 4.3.407c.549.089 1.1.179 1.653.253a30.72 30.72 0 0 0 10.117-.75c2.065-.4 6.415-.616 9.3.487a1.143 1.143 0 0 0 .817-2.136c-3.349-1.282-8.144-1.06-10.547-.6a29 29 0 0 1-9.379.73 63.629 63.629 0 0 1-1.593-.245 22.789 22.789 0 0 0-4.764-.434A18.209 18.209 0 0 0 61.3 59.1a1.144 1.144 0 0 0 .444 2.2zm-.226 9.054a13.1 13.1 0 0 1 9.592 1.124 1.143 1.143 0 1 0 1.119-1.994 15.319 15.319 0 0 0-11.416-1.305 1.143 1.143 0 0 0 .706 2.175zm22.739-.87a1.143 1.143 0 1 0 1.119 1.994 13.2 13.2 0 0 1 9.594-1.123 1.143 1.143 0 0 0 .7-2.176 15.316 15.316 0 0 0-11.413 1.305zM72.648 96.207c.219.013.423.026.422.022a5.286 5.286 0 0 1 1.818 1.041 5.879 5.879 0 0 0 3.433 1.509 3.7 3.7 0 0 0 .875-.107 5.37 5.37 0 0 0 2.476-1.481 5.68 5.68 0 0 1 .966-.765 2.786 2.786 0 0 1 2.283.133 1.142 1.142 0 0 0 1.5-.387 4.9 4.9 0 0 0 .6-3.687A5.1 5.1 0 0 0 84.2 89.32a1.143 1.143 0 1 0-1.052 2.03 2.965 2.965 0 0 1 1.656 1.7 2.2 2.2 0 0 1 .011 1.046 4.65 4.65 0 0 0-3.32.341 7.653 7.653 0 0 0-1.366 1.063 3.279 3.279 0 0 1-1.474.946c-.746.183-1.4-.27-2.4-1.017a7.1 7.1 0 0 0-2.723-1.444 10.348 10.348 0 0 0-.738-.064l-.152-.009c-.09-1.355 1.485-2.4 1.562-2.453a1.143 1.143 0 0 0-1.237-1.923c-1.315.842-3.481 3.16-2.262 5.907.289.657.74.688 1.943.764zm-8.928 1.715a16.579 16.579 0 0 0 2.433-1.828 12.526 12.526 0 0 1 2.388-1.743 1.143 1.143 0 1 0-1.029-2.041 14.364 14.364 0 0 0-2.844 2.046 14.744 14.744 0 0 1-2.1 1.589 4.079 4.079 0 0 1-4.418-.468 1.144 1.144 0 0 0-1.45 1.765 7.044 7.044 0 0 0 4.125 1.479 5.689 5.689 0 0 0 2.895-.799zm36.431-2.445a4.093 4.093 0 0 1-4.419.467 15.108 15.108 0 0 1-2.182-1.669 13.7 13.7 0 0 0-3.259-2.291 1.143 1.143 0 1 0-.938 2.086 11.843 11.843 0 0 1 2.7 1.937 16.987 16.987 0 0 0 2.527 1.915 5.685 5.685 0 0 0 2.9.8 7.043 7.043 0 0 0 4.124-1.479 1.143 1.143 0 0 0-1.453-1.766zm-3.423 4.813a1.145 1.145 0 0 0-1.322.931 23.4 23.4 0 0 1-3.224 8.09c-2.56 4.2-5.39 6.929-8.652 8.332-7.178 3.086-13.672-2.281-17.36-8.332a23.793 23.793 0 0 1-3.146-7.68 1.144 1.144 0 0 0-2.244.443 26.046 26.046 0 0 0 3.439 8.427c3.311 5.436 8.7 10.35 15.031 10.35a13.031 13.031 0 0 0 5.185-1.108c3.711-1.6 6.885-4.619 9.7-9.242a25.671 25.671 0 0 0 3.525-8.889 1.143 1.143 0 0 0-.932-1.322z"/><g class="f"><path class="g" d="M16.865 52.535l35.08-36.049a4.434 4.434 0 0 1 3.178-1.342h49.489a4.434 4.434 0 0 1 3.178 1.342l35.08 36.049a4.434 4.434 0 0 1 1.256 3.092v51.1a4.434 4.434 0 0 1-1.256 3.092l-35.08 36.051a4.434 4.434 0 0 1-3.178 1.342H55.123a4.434 4.434 0 0 1-3.178-1.342l-35.08-36.049a4.434 4.434 0 0 1-1.256-3.092v-51.1a4.434 4.434 0 0 1 1.256-3.094z"/><path class="g" d="M10.665 82.02L27.1 34.48a4.434 4.434 0 0 1 2.306-2.565l44.8-21.029a4.434 4.434 0 0 1 3.446-.136l47.074 17.727a4.434 4.434 0 0 1 2.451 2.265L148.893 77a4.434 4.434 0 0 1 .177 3.333l-16.438 47.539a4.434 4.434 0 0 1-2.306 2.565l-44.8 21.029a4.434 4.434 0 0 1-3.446.136l-47.073-17.725a4.434 4.434 0 0 1-2.451-2.265l-21.714-46.26a4.434 4.434 0 0 1-.177-3.332z"/></g></g></svg>