<?xml version="1.0" encoding="utf-8"?>
<!-- Generator: Adobe Illustrator 21.1.0, SVG Export Plug-In . SVG Version: 6.00 Build 0)  -->
<svg version="1.1" baseProfile="tiny" id="Layer_1" xmlns="http://www.w3.org/2000/svg" xmlns:xlink="http://www.w3.org/1999/xlink"
	 x="0px" y="0px" viewBox="0 0 288 192" overflow="scroll" xml:space="preserve">
<g>
	<g>
		<path fill="#007DBE" d="M4.9,99.4L4.9,99.4c2.5,1.6,5.9-0.2,5.9-3.2v0c0-3-3.3-4.8-5.9-3.2l0,0C2.5,94.4,2.5,97.9,4.9,99.4z"/>
		<path fill="#007DBE" d="M22.4,83.9v24.5c0,1.3,0.7,2.5,1.8,3.2l3.9,2.5c2.5,1.6,5.9-0.2,5.9-3.2V81.4c0-3-3.3-4.8-5.9-3.2
			l-3.9,2.5C23.1,81.4,22.4,82.6,22.4,83.9z"/>
		<path fill="#007DBE" d="M45.6,69.2v54c0,1.3,0.7,2.5,1.8,3.2l3.9,2.5c2.5,1.6,5.9-0.2,5.9-3.2V66.7c0-3-3.3-4.8-5.9-3.2L47.4,66
			C46.3,66.7,45.6,67.9,45.6,69.2z"/>
		<path fill="#007DBE" d="M68.8,54.5v83.4c0,1.3,0.7,2.5,1.8,3.2l3.9,2.5c2.5,1.6,5.9-0.2,5.9-3.2V52c0-3-3.3-4.8-5.9-3.2l-3.9,2.5
			C69.5,51.9,68.8,53.2,68.8,54.5z"/>
		<path fill="#007DBE" d="M92,39.7v112.8c0,1.3,0.7,2.5,1.8,3.2l3.9,2.5c2.5,1.6,5.9-0.2,5.9-3.2V37.3c0-3-3.3-4.8-5.9-3.2l-3.9,2.5
			C92.7,37.2,92,38.4,92,39.7z"/>
		<path fill="#007DBE" d="M115.2,25v142.2c0,1.3,0.7,2.5,1.8,3.2l3.9,2.5c2.5,1.6,5.9-0.2,5.9-3.2V22.6c0-3-3.3-4.8-5.9-3.2
			l-3.9,2.5C115.9,22.5,115.2,23.7,115.2,25z"/>
		<path fill="#007DBE" d="M138.4,10.3V182c0,1.3,0.7,2.5,1.8,3.2l3.9,2.5c2.5,1.6,5.9-0.2,5.9-3.2V7.9c0-3-3.3-4.8-5.9-3.2l-3.9,2.5
			C139.1,7.8,138.4,9,138.4,10.3z"/>
	</g>
	<g>
		<path fill="#002978" d="M283.4,99.4L283.4,99.4c-2.5,1.6-5.9-0.2-5.9-3.2v0c0-3,3.3-4.8,5.9-3.2l0,0
			C285.8,94.4,285.8,97.9,283.4,99.4z"/>
		<path fill="#002978" d="M265.9,83.9v24.5c0,1.3-0.7,2.5-1.8,3.2l-3.9,2.5c-2.5,1.6-5.9-0.2-5.9-3.2V81.4c0-3,3.3-4.8,5.9-3.2
			l3.9,2.5C265.2,81.4,265.9,82.6,265.9,83.9z"/>
		<path fill="#002978" d="M242.7,69.2v54c0,1.3-0.7,2.5-1.8,3.2l-3.9,2.5c-2.5,1.6-5.9-0.2-5.9-3.2V66.7c0-3,3.3-4.8,5.9-3.2
			l3.9,2.5C242,66.7,242.7,67.9,242.7,69.2z"/>
		<path fill="#002978" d="M219.5,54.5v83.4c0,1.3-0.7,2.5-1.8,3.2l-3.9,2.5c-2.5,1.6-5.9-0.2-5.9-3.2V52c0-3,3.3-4.8,5.9-3.2
			l3.9,2.5C218.8,51.9,219.5,53.2,219.5,54.5z"/>
		<path fill="#002978" d="M196.3,39.7v112.8c0,1.3-0.7,2.5-1.8,3.2l-3.9,2.5c-2.5,1.6-5.9-0.2-5.9-3.2V37.3c0-3,3.3-4.8,5.9-3.2
			l3.9,2.5C195.6,37.2,196.3,38.4,196.3,39.7z"/>
		<path fill="#002978" d="M173.1,25v142.2c0,1.3-0.7,2.5-1.8,3.2l-3.9,2.5c-2.5,1.6-5.9-0.2-5.9-3.2V22.6c0-3,3.3-4.8,5.9-3.2
			l3.9,2.5C172.4,22.5,173.1,23.7,173.1,25z"/>
	</g>
</g>
</svg>
