<?xml version="1.0" encoding="utf-8"?>
<!-- Generator: Adobe Illustrator 21.1.0, SVG Export Plug-In . SVG Version: 6.00 Build 0)  -->
<svg version="1.1" baseProfile="tiny" id="Layer_1" xmlns="http://www.w3.org/2000/svg" xmlns:xlink="http://www.w3.org/1999/xlink"
	 x="0px" y="0px" viewBox="0 0 225 306" overflow="scroll" xml:space="preserve">
<g>
	<g>
		<g>
			<path fill="#004990" d="M110,295.9C1.3,245.6,14.3,133.4,14.4,80.9l192.3,0.2C206.7,133.6,218.8,245.9,110,295.9z M14.4,72.3
				L6.1,81C6,87.3,5.9,95.1,5.8,99C5,160.7,9.2,256.6,109.5,303c53.1-24.6,93.2-66.9,103.8-132.4c6.1-37.9,2.5-74,2.5-98.2
				L14.4,72.3z"/>
		</g>
		<g>
			<path fill="#004990" d="M68.9,210.1c-7.7,8.2-15.3,16.4-17.9,19.1c-0.6,0.6-0.6,1.3-0.3,1.7c0.5,0.6,1.3,1.3,1.5,1.4
				c0.5,0.1,0.8,0.3,1.6-0.6c0.3-0.4,8.8-8.6,18.8-18.2c0,0-1-0.5-1.9-1.3C70,211.4,68.9,210.1,68.9,210.1z"/>
			<g>
				<path fill="#004990" d="M74.1,207.9c2,1.9,5.2,3.7,5.2,3.7l-1.8,1.7c-0.7,0.7-3.1-0.4-5.6-2.6c-2.4-2.1-3.8-4.5-3.1-5.2l2-1.8
					C70.7,203.8,72.1,206,74.1,207.9z"/>
			</g>
			<g>
				<g>
					<g>
						<path fill="#004990" d="M161.9,229.1c1.6-1.6,1.7-3.1,1.7-3.1l1.7,0.8c0.5,0.6,0.1,2.6-1.5,4.2c-1.6,1.6-3.8,2.1-4.3,1.6
							l-0.9-1.9C158.5,230.7,160.3,230.7,161.9,229.1z"/>
					</g>
				</g>
				<g>
					<g>
						<path fill="#004990" d="M159.3,226.3c1-0.9,1.4-2.2,1.4-2.2l1.1,0.8c0.4,0.4,0,1.7-1.2,2.8c-1.2,1.2-2.8,1.5-3.2,1.1l-0.7-1.2
							C156.8,227.6,158.2,227.2,159.3,226.3z"/>
					</g>
				</g>
			</g>
		</g>
		<g>
			<path fill="#004990" d="M164.6,138.5l-2,1.8c-2.8,1.1-9.2-3.8-14.2-8.2c-3.3-2.9-10.1-10.3-8.2-13.3l0.8-0.9
				c-0.6-0.4-1.1-0.7-1.5-0.9c-0.6-0.3-1.3-0.5-2.1-0.4c-0.8,0.1-1.4,0.4-1.5,1.1c-0.1,1.3,0.6,3.1,1.7,5.2
				c1.1,2.1,5.2,8.2,13.6,14.9c3.8,3.1,8.2,5,11.4,6.1c0.6,0.2,2.6,0.6,3.4-0.2c0.9-0.9-0.1-2.4-0.8-3.9
				C165.2,139.4,164.9,138.9,164.6,138.5z"/>
		</g>
		<path fill="#004990" d="M158.7,223.2c-3.1-3.7-28-32.8-31.8-37.3c-4-4.8-29.5-35.1-37.9-45.6c-9.7-12.2-11.6-29.1-11.6-31.1
			c0-0.7,0-1.4,0-2c0-0.2-0.5-0.2-0.7,0.1c-0.5,1-3.4,7.1-12.7,15.9c-6.6,6.3-15,11.1-18.8,12.7c-0.1,0.1-0.3,0.3-0.2,0.4
			c0.4,0.3,6.6,0.5,6.6,0.5c8.7,0.7,12.3,3.6,20.2,8.6c9.1,5.9,31.3,27.3,35.5,31.4c4.2,4.1,47.2,47.1,48.1,48.2
			c0.1,0.1,0.7,0.7,0.8,0.8c0,0,0.8-0.1,1.6-0.7c0.7-0.6,1.1-1.4,1.1-1.4C159,223.5,158.8,223.3,158.7,223.2z M154.5,221.9
			c0,0-23.7-24.1-38.8-39.7c-29.7-30.7-43.3-40.1-50.5-44c-4.1-2.2-8.7-3.2-9.3-3.5c-0.6-0.3-0.8-0.8,0.4-1.9c1.6-1.4,4.3-2.6,6-3.3
			c0.6-0.2,2.7,0.4,4.8,1.3c4,1.7,7.4,3.8,16.4,12.7c3,3,6.4,6.5,10.2,10.6c26.9,28.6,61.4,67.3,61.4,67.3L154.5,221.9z"/>
		<path fill="#004990" d="M73.4,99.5c-1.1-0.1-3.7,0.9-6.4,2.4c-9,4.9-18.3,13.3-23.4,20.2c-1.6,2.2-2.8,4.2-3.7,5.8
			c-2.8,5.3,1.1,6.5,3.8,5.4c4.4-1.8,9.3-4.8,13.2-8.1c11-9.3,17.5-18,18.4-21.9C75.8,101.5,75.6,99.7,73.4,99.5z M72.1,105
			c0,0-1.7,3.3-4.9,7.1c-3,3.6-6.6,7.2-7.6,8.1c-0.1,0.1-0.7,0.1-0.5-0.5c1.7-4.2-0.9-6.9-0.6-7.9c0.3-1.2,1.1-2.7,1.5-3.1
			c3.4-3.2,11.2-6.7,11.5-6.4c0.2,0.2,0.8,0.4,0.9,1C72.6,104,72.1,105,72.1,105z"/>
		<g>
			<path fill="#004990" d="M106.8,179.2c-1.8,1.7-29.8,28.5-29.8,28.5c0.4,0.4,1.6,1.3,1.6,1.3s25.7-24.7,27.6-26.4
				c0.5-0.5,1.6-1.5,2.1-1.9L106.8,179.2z"/>
			<path fill="#004990" d="M159.5,146.1c0.4,0,0.8-0.1,1.2-0.1c0.4,0,1-0.1,1.1-0.2c0.2-0.2,0.4-0.5-0.1-0.5c-1.3,0-3.7-0.7-6.4-2
				c-1.7,0.5-4.4,1.2-7.5,2.6c-4,1.8-12.9,7.1-31,23.7l1.4,1.7c6.3-5.7,14.6-13.1,19.2-16c8.1-5.3,13.9-7.6,17.8-8.6
				C156.4,146.4,158.1,146.2,159.5,146.1z"/>
		</g>
		<g>
			<path fill="#004990" d="M141.9,132.9c-5-5.2-6.5-8.9-7.3-11.6c0-0.1-0.1-0.2-0.1-0.3c0,0-0.2-0.1-0.3,0.1c0,0.1-0.1,0.2-0.1,0.3
				c-0.4,5.3,0.1,7.6-2.2,13c-1.9,4.6-5.2,10.4-9.7,15.7c-2.6,3.1-7.1,8.1-11.2,12.8l2.9,3.4c0.3-0.3,1.2-1.3,2.2-2.4
				c13.8-14.7,25.8-23.9,30.1-27C144.6,135.7,143.2,134.3,141.9,132.9z"/>
			<path fill="#004990" d="M101,173.9c-5.8,6.6-11.7,13-13.4,14.9c-1.4,1.6-14.2,15.3-14.2,15.3s0.3,0.6,0.7,1c0.4,0.4,1.1,1,1.1,1
				s26.7-27.4,28.7-29.5L101,173.9z"/>
		</g>
		<path fill="#004990" d="M146.7,114.8c0-0.2,0-0.4,0-0.6c-1.4-0.4-2.5-0.3-3,0.3c-1.8,1.9,2.1,8.3,8.7,14.4c6.5,6,13.2,9.4,15,7.5
			c0.7-0.8,0.5-2.3-0.4-4.2C157.5,133.4,146.7,120.9,146.7,114.8z"/>
		<path fill="#004990" d="M176.2,117.3c-0.9,1.1-2.5,3.5-3.4,4.4c1-0.9,1.6-3.1,0.5-8.9c-0.8-4-1.3-5.4-1.8-6.7
			c-0.3-0.8-0.8-0.6-1.3,0c-0.5,0.6-1.7,2.7-1.8,2.8c-0.1,0.5,0,0-1.9-5.8c-1.2-3.7-1.7-6.3-1.6-7.6c0-0.7,0.1-1.4,0.1-1.9
			c0-0.5-0.2-0.4-1.4,0.1c-0.6,0.3-5.6,3.7-7.7,9c-1.2,3-1.3,5.5-1.5,4c-0.4-3-0.3-2.9-0.6-2.8c-1.7,0.5-7.4,3.2-7.5,11
			c0,6.7,12.5,20.8,22.7,17.6c0,0,7.7-1.5,7.9-8.4C177,116.9,176.2,117.3,176.2,117.3z M173.6,125.9c-0.4,0.7-1.8,2.5-4,3.5
			c-2.4,1.1-5.6,1.2-7.3,0.7c-7.5-2.3-12-10-12-10c-5.9-9.6,2-13.7,2.7-13.8c0,0-0.8,3.1-0.3,5.3c0.5,1.9,1.6,3.4,1.9,4.4
			c0.7,2.1-0.3,3.6-0.8,4.3c-0.3,0.4,0.4,0.2,0.6,0.1c0.1-0.1,0.2-0.2,0.5-0.4c1.1-0.8,2.1-2.1,1.8-3.4c-0.7-2.9-2.8-4.8-0.3-10.9
			c1.5-3.7,5.1-7.4,5.4-7.6c0.6-0.4,0.9-0.9,0.9-0.5c0,0.4,0.6,3.2,1,4.9c0.3,1.8,2.4,5.4,1.9,10.4c-0.4,5-8.6,10.5-9.8,10.9
			c-0.4,0.1-0.9,0.5-1.1,0.6c-0.3,0.3,0.1,0.3,0.3,0.4c0.4,0.1,3.9-0.8,6.7-2.7c2.3-1.6,4.6-4.1,5.3-5.6c1.4-2.7,2.1-6.4,2.3-6.8
			c0.2-0.6,0.5-0.6,0.5-0.2c0.1,0.3,0.7,2.5,0.9,3.6c0.1,0.6,0.5,2.4,0.5,4.3c0,3.8-1.1,5.5-3.3,7.2c-1.3,1-2.6,1.3-4.2,1.5
			l-0.5,0.1c-0.2,0-0.4,0.1,0.1,0.3c0.1,0.1,0.3,0.1,0.5,0.2c1.2,0.6,3.9,0.5,5.6-0.5c0.8-0.5,1.8-1.2,3.2-2.6
			c0.5-0.5,1.2-1.4,1.3-1.1C174.2,122.8,174.4,124.5,173.6,125.9z"/>
	</g>
	<g>
		<g>
			<g>
				<path fill="#004990" d="M119.8,5.2c12.9,0,21.1,11.7,21.1,23.8c0,12.2-7.8,20-17.4,20c-13.1,0-21.1-11.8-21.1-24.1
					C102.3,14.4,108.7,5.2,119.8,5.2z M120.6,51c14.8,0,25-9.6,25-24.5c0-13.7-10.4-23.4-23.9-23.4c-13.6,0-24.3,10-24.3,23.8
					C97.5,40.7,106.3,51,120.6,51z"/>
				<path fill="#004990" d="M159,8.2c0-2.5,1.4-2.4,3.7-2.4c6.3,0,12.3,2.6,12.3,10.5c0,8-6.2,9.1-8.9,9.1c-3,0-7,0.3-7-0.9V8.2z
					 M171.7,25.9c4.5-1.8,8.1-6.1,8.1-11.1c0-12.4-14.2-11.1-15.3-11.1c-3.3,0-7,0.3-10.7,0.3c-3.3,0-2.9-0.3-4.1-0.3
					c-0.8,0-1.3,0.4-1.3,0.8c0,2.2,5.5-0.4,5.5,5.7v32.7c0,4.9-4.7,4-4.7,5.6c0,0.4,0.3,0.7,0.6,0.7c2.4,0,4.9-0.3,7.3-0.3
					c5.3,0,6.8,0.3,7.4,0.3c0.5,0,1.1,0.1,1.1-0.5c0-2.2-6.7-0.2-6.7-5.7V29.3c0-0.6-0.4-1.8,1.7-1.8c7.2,0,6.2-0.2,8.6,3.4
					l7.1,11.3c2.5,3.7,5,7,9.6,7c0.6,0,5.7,0,5.7-0.8c0-1.5-4.6,0.8-9.3-6.3L171.7,25.9z"/>
				<path fill="#004990" d="M190.4,7.7c-1.7-2.8-4.8-2-4.8-3.1c0-0.4,0.4-1,0.8-1c1.7,0,3,0.3,7.3,0.3c2.1,0,3.9-0.3,4.5-0.3
					c0.5,0,1.2,0.1,1.2,0.6c0,1.1-3,1.2-3,3c0,1,0.8,2.1,1.2,2.6l7.7,12.4c0.5,0.8,0.9,1.2,1.3,1.2c0.3,0,0.7-0.4,1.2-1.3l6.6-10.7
					c0.4-0.7,1.4-1.8,1.4-3.5c0-3.1-4.8-1.8-4.8-3.3c0-0.8,0.6-1,1.3-1c1.5,0,3.1,0.3,4.7,0.3c1.9,0,3.7-0.3,5.6-0.3
					c0.4,0,0.7,0.4,0.7,0.8c0,0.7-1.1,1-1.5,1.2c-1.7,1-2.6,2.8-3.6,4.4l-9,14c-1,1.6-1.5,1.9-1.5,2.9v15.8c0,5.6,5.3,3.8,5.3,5.8
					c0,0.6-0.6,0.6-1.5,0.6c-1,0-4.7-0.3-7-0.3c-2.9,0-5.2,0.3-5.8,0.3c-0.6,0-1-0.1-1-0.8c0-1.8,4.9-0.1,4.9-4.7V28.2
					c0-1.2-1-2.5-1.5-3.3L190.4,7.7z"/>
				<path fill="#004990" d="M90.2,43.2c0.3,5.4,5.1,3,5.1,5.3c0,0.6-0.8,0.6-1.5,0.6c-1.2,0-3.5-0.3-6-0.3c-2,0-4,0.3-5.5,0.3
					c-0.6,0-0.7-0.3-0.7-0.6c0-1.9,4-0.5,4-5.3l-1.8-24.9c0-1.6-0.3-2.5-0.7-2.5c-0.4,0-1,0.6-1.7,1.9L68,44.9
					c-0.3,0.6-1.3,3.2-2,3.2c-0.6,0-1.1-1.4-1.3-1.9L51,17.6c-0.2-0.5-0.5-0.7-0.8-0.7c-0.2,0-0.4,0.3-0.4,1l-1.9,22.5
					c-0.3,8.5,5.8,5.7,5.8,8c0,0.6-0.7,0.7-1.6,0.7c-0.8,0-3.7-0.3-5.6-0.3c-3.3,0-4.4,0.3-5.7,0.3c-0.4,0-0.6-0.3-0.6-0.8
					c0-2.2,4.1,0.5,4.6-6.2c0.8-10.5,1.5-17.3,1.5-24.1c0-15.1-5-11.5-5-13.7c0-0.6,0.5-0.7,1.1-0.7c1.2,0,2.3,0.3,3.5,0.3
					c1.2,0,2.3-0.3,3.4-0.3c0.9,0,1,1.1,1.4,1.8L66,38.1c0.7,1.3,1,1.9,1.4,1.9c0.3,0,1-1.3,2-3.5L84.7,5.8c0.4-0.7,0.9-2.3,1.7-2.2
					c0.6,0,2.7,0.3,3,0.3c1.5,0,2.1-0.3,3.1-0.3c0.4,0,0.6,0.4,0.6,0.8c0,2.1-5.1-0.7-4.9,6.9L90.2,43.2z"/>
				<path fill="#004990" d="M12.1,22.4c0,2.2-0.1,2.2,2.4,2.2h6.9c6.7,0,4.9-5.2,6.5-5.2c0.5,0,0.7,0.7,0.7,1.2
					c0,2.3-0.1,4.4-0.1,6.5c0,1.7,0.1,3.3,0.1,5.1c0,0.6-0.2,0.8-0.7,0.8c-2,0,0.2-5.7-5.2-5.7h-9.5c-1.3,0-1.2,1.1-1.2,2.1v11.8
					c0,3.8-0.5,5.3,4.9,5.3c14.8,0,17-6.6,17.8-6.6c0.4,0,0.5,0.6,0.5,0.8c0,2.3-1.7,4.6-3.2,6.2c-2.1,2.3-3.5,2.2-6.3,2.2
					c-4.9,0-9.7-0.4-14.6-0.3C8.7,49,6,49.2,3.4,49.2c-0.6,0-1-0.1-1-0.6c0.1-0.8,0.8-0.6,2.8-1.7c1.7-0.8,1.8-2.6,1.8-5.6V12
					c0-2.9,0-6-3.5-6.5c-0.5-0.1-1.9-0.3-1.9-1c0-0.5,0.4-0.8,2.2-0.8C16,3.7,19.3,4,22,4c1.3,0,7.2-0.3,9.1-0.3
					c0.5,0,0.6,0.6,0.6,1.4c0,7.1-0.9,7.6-1.3,7.6C29,12.8,30,9.7,29,8.2C27.4,6,20.7,6.4,18.1,6.4c-6.2,0-6-0.3-6,4.1V22.4z"/>
			</g>
		</g>
	</g>
</g>
</svg>
