<?xml version="1.0" encoding="utf-8"?>
<!-- Generator: Adobe Illustrator 21.1.0, SVG Export Plug-In . SVG Version: 6.00 Build 0)  -->
<svg version="1.1" baseProfile="tiny" id="Layer_1" xmlns="http://www.w3.org/2000/svg" xmlns:xlink="http://www.w3.org/1999/xlink"
	 x="0px" y="0px" viewBox="0 0 466 466" overflow="scroll" xml:space="preserve">
<g>
	<path fill="none" stroke="#004B97" stroke-width="4" stroke-miterlimit="10" d="M31.9,141.6l112-115.1c2.7-2.7,6.3-4.3,10.1-4.3
		h158c3.8,0,7.5,1.5,10.1,4.3l112,115.1c2.6,2.6,4,6.2,4,9.9v163.1c0,3.7-1.4,7.2-4,9.9l-112,115.1c-2.7,2.7-6.3,4.3-10.1,4.3H154
		c-3.8,0-7.5-1.5-10.1-4.3l-112-115.1c-2.6-2.6-4-6.2-4-9.9V151.4C27.9,147.8,29.3,144.2,31.9,141.6z"/>
	<path fill="none" stroke="#004B97" stroke-width="4" stroke-miterlimit="10" d="M12.1,235.7L64.6,83.9c1.2-3.6,3.9-6.6,7.4-8.2
		L215,8.6c3.5-1.6,7.4-1.8,11-0.4l150.3,56.6c3.5,1.3,6.3,3.9,7.8,7.2l69.3,147.7c1.6,3.3,1.8,7.2,0.6,10.6l-52.5,151.8
		c-1.2,3.6-3.9,6.6-7.4,8.2l-143,67.1c-3.5,1.6-7.4,1.8-11,0.4L89.8,401.2c-3.5-1.3-6.3-3.9-7.8-7.2L12.7,246.3
		C11.1,243,10.9,239.2,12.1,235.7z"/>
</g>
<circle fill="none" stroke="#004B97" stroke-width="11" stroke-miterlimit="10" cx="233" cy="233" r="147.5"/>
</svg>
