<?xml version="1.0" encoding="utf-8"?>
<!-- Generator: Adobe Illustrator 21.1.0, SVG Export Plug-In . SVG Version: 6.00 Build 0)  -->
<svg version="1.1" baseProfile="tiny" id="Layer_1" xmlns="http://www.w3.org/2000/svg" xmlns:xlink="http://www.w3.org/1999/xlink"
	 x="0px" y="0px" viewBox="0 0 475.8 475.8" overflow="scroll" xml:space="preserve">
<g>
	<path fill="none" stroke="#004B97" stroke-width="4.4474" stroke-miterlimit="10" d="M348.4,116.2H127.4
		c-67.2,0-121.7,54.5-121.7,121.7v0c0,67.2,54.5,121.7,121.7,121.7h220.9c67.2,0,121.7-54.5,121.7-121.7v0
		C470.1,170.7,415.6,116.2,348.4,116.2z"/>
	<path fill="none" stroke="#004B97" stroke-width="4.4474" stroke-miterlimit="10" d="M348.4,116.2H127.4
		c-67.2,0-121.7,54.5-121.7,121.7v0c0,67.2,54.5,121.7,121.7,121.7h220.9c67.2,0,121.7-54.5,121.7-121.7v0
		C470.1,170.7,415.6,116.2,348.4,116.2z"/>
	<path fill="none" stroke="#004B97" stroke-width="4.4474" stroke-miterlimit="10" d="M116.2,127.4v220.9
		c0,67.2,54.5,121.7,121.7,121.7h0c67.2,0,121.7-54.5,121.7-121.7V127.4c0-67.2-54.5-121.7-121.7-121.7h0
		C170.7,5.7,116.2,60.2,116.2,127.4z"/>
	<path fill="none" stroke="#004B97" stroke-width="4.4474" stroke-miterlimit="10" d="M116.2,127.4v220.9
		c0,67.2,54.5,121.7,121.7,121.7h0c67.2,0,121.7-54.5,121.7-121.7V127.4c0-67.2-54.5-121.7-121.7-121.7h0
		C170.7,5.7,116.2,60.2,116.2,127.4z"/>
	<path fill="none" stroke="#004B97" stroke-width="4.4474" stroke-miterlimit="10" d="M73.7,245.8l156.2,156.2
		c47.5,47.5,124.6,47.5,172.1,0l0,0c47.5-47.5,47.5-124.6,0-172.1L245.8,73.7c-47.5-47.5-124.6-47.5-172.1,0l0,0
		C26.2,121.3,26.2,198.3,73.7,245.8z"/>
	<path fill="none" stroke="#004B97" stroke-width="4.4474" stroke-miterlimit="10" d="M73.7,245.8l156.2,156.2
		c47.5,47.5,124.6,47.5,172.1,0l0,0c47.5-47.5,47.5-124.6,0-172.1L245.8,73.7c-47.5-47.5-124.6-47.5-172.1,0l0,0
		C26.2,121.3,26.2,198.3,73.7,245.8z"/>
	<path fill="none" stroke="#004B97" stroke-width="4.4474" stroke-miterlimit="10" d="M73.7,229.9L229.9,73.7
		c47.5-47.5,124.6-47.5,172.1,0l0,0c47.5,47.5,47.5,124.6,0,172.1L245.8,402.1c-47.5,47.5-124.6,47.5-172.1,0l0,0
		C26.2,354.5,26.2,277.5,73.7,229.9z"/>
	<path fill="none" stroke="#004B97" stroke-width="4.4474" stroke-miterlimit="10" d="M73.7,229.9L229.9,73.7
		c47.5-47.5,124.6-47.5,172.1,0l0,0c47.5,47.5,47.5,124.6,0,172.1L245.8,402.1c-47.5,47.5-124.6,47.5-172.1,0l0,0
		C26.2,354.5,26.2,277.5,73.7,229.9z"/>
</g>
<circle fill="none" stroke="#004B97" stroke-width="4.3874" stroke-miterlimit="10" cx="237.9" cy="237.9" r="121.2"/>
<circle fill="none" stroke="#004B97" stroke-width="5.7135" stroke-miterlimit="10" cx="237.9" cy="237.9" r="101.3"/>
</svg>
