<?xml version="1.0" encoding="utf-8"?>
<!-- Generator: Adobe Illustrator 21.1.0, SVG Export Plug-In . SVG Version: 6.00 Build 0)  -->
<svg version="1.1" baseProfile="tiny" id="Layer_1" xmlns="http://www.w3.org/2000/svg" xmlns:xlink="http://www.w3.org/1999/xlink"
	 x="0px" y="0px" viewBox="0 0 1282 484" overflow="scroll" xml:space="preserve">
<g>
	<polygon fill="#002978" points="25.9,44.6 60.9,105 102,175.7 140.5,242 181.5,312.8 216.5,373.1 257.6,443.8 280.6,483.5 
		280.6,483.5 317,483.5 362.8,483.5 362.7,483.5 337.1,439.4 298.7,373.1 257.6,302.3 222.6,242 181.5,171.2 143,105 102,34.2 
		82.4,0.5 51.5,0.5 30.9,0.5 0.3,0.5 	"/>
	<polygon fill="#002978" points="179.1,44.6 214.1,105 255.1,175.7 293.6,242 334.7,312.8 369.7,373.1 410.7,443.8 433.8,483.5 
		433.8,483.5 470.1,483.5 515.9,483.5 515.9,483.5 490.3,439.4 451.8,373.1 410.7,302.3 375.7,242 334.7,171.2 296.2,105 
		255.1,34.2 235.6,0.5 204.7,0.5 184,0.5 153.4,0.5 	"/>
	<polygon fill="#002978" points="332.2,44.6 367.2,105 408.3,175.7 446.8,242 487.8,312.8 522.8,373.1 563.9,443.8 586.9,483.5 
		586.9,483.5 623.3,483.5 669.1,483.5 669.1,483.5 643.4,439.4 605,373.1 563.9,302.3 528.9,242 487.8,171.2 449.4,105 408.3,34.2 
		388.7,0.5 357.9,0.5 337.2,0.5 306.6,0.5 	"/>
	<polygon fill="#002978" points="485.4,44.6 520.4,105 561.5,175.7 599.9,242 641,312.8 676,373.1 717.1,443.8 740.1,483.5 
		740.1,483.5 776.4,483.5 822.2,483.5 822.2,483.5 796.6,439.4 758.1,373.1 717.1,302.3 682.1,242 641,171.2 602.5,105 561.5,34.2 
		541.9,0.5 511,0.5 490.3,0.5 459.8,0.5 	"/>
	<polygon fill="#002978" points="638.5,44.6 673.6,105 714.6,175.7 753.1,242 794.1,312.8 829.2,373.1 870.2,443.8 893.3,483.5 
		893.3,483.5 929.6,483.5 975.4,483.5 975.4,483.5 949.7,439.4 911.3,373.1 870.2,302.3 835.2,242 794.1,171.2 755.7,105 
		714.6,34.2 695,0.5 664.2,0.5 643.5,0.5 612.9,0.5 	"/>
	<polygon fill="#002978" points="791.7,44.6 826.7,105 867.8,175.7 906.2,242 947.3,312.8 982.3,373.1 1023.4,443.8 1046.4,483.5 
		1046.4,483.5 1082.7,483.5 1128.6,483.5 1128.5,483.5 1102.9,439.4 1064.4,373.1 1023.4,302.3 988.4,242 947.3,171.2 908.8,105 
		867.8,34.2 848.2,0.5 817.3,0.5 796.7,0.5 766.1,0.5 	"/>
	<polygon fill="#002978" points="944.9,44.6 979.9,105 1020.9,175.7 1059.4,242 1100.5,312.8 1135.5,373.1 1176.5,443.8 
		1199.6,483.5 1199.6,483.5 1235.9,483.5 1281.7,483.5 1281.7,483.5 1256.1,439.4 1217.6,373.1 1176.5,302.3 1141.5,242 
		1100.5,171.2 1062,105 1020.9,34.2 1001.4,0.5 970.5,0.5 949.8,0.5 919.2,0.5 	"/>
</g>
</svg>
