<?xml version="1.0" encoding="utf-8"?>
<!-- Generator: Adobe Illustrator 21.1.0, SVG Export Plug-In . SVG Version: 6.00 Build 0)  -->
<svg version="1.1" baseProfile="tiny" id="Layer_1" xmlns="http://www.w3.org/2000/svg" xmlns:xlink="http://www.w3.org/1999/xlink"
	 x="0px" y="0px" viewBox="0 0 728 484" overflow="scroll" xml:space="preserve">
<g>
	<polygon fill="#002978" points="557.2,464.8 576.7,431.2 597.5,395.3 615.3,364.6 636.2,328.7 655.7,295.1 676.5,259.1 686.5,242 
		676.5,224.9 655.7,188.9 636.2,155.3 615.3,119.4 597.5,88.7 576.7,52.8 557.2,19.2 544.1,-3.3 544.1,-3.3 567.4,-3.3 585.8,-3.3 
		585.8,-3.3 597.5,16.9 618.4,52.8 636.2,83.4 657,119.4 676.5,153 697.4,188.9 715.1,219.6 728.2,242 715.1,264.4 697.4,295.1 
		676.5,331 657,364.6 636.2,400.6 618.4,431.2 597.5,467.1 585.8,487.3 585.8,487.3 567.4,487.3 544.1,487.3 544.1,487.3 	"/>
	<polygon fill="#002978" points="479.4,464.8 498.9,431.2 519.8,395.3 537.5,364.6 558.4,328.7 577.9,295.1 598.8,259.1 608.7,242 
		598.8,224.9 577.9,188.9 558.4,155.3 537.5,119.4 519.8,88.7 498.9,52.8 479.4,19.2 466.4,-3.3 466.4,-3.3 489.6,-3.3 508.1,-3.3 
		508.1,-3.3 519.8,16.9 540.6,52.8 558.4,83.4 579.2,119.4 598.8,153 619.6,188.9 637.4,219.6 650.4,242 637.4,264.4 619.6,295.1 
		598.8,331 579.2,364.6 558.4,400.6 540.6,431.2 519.8,467.1 508.1,487.3 508.1,487.3 489.6,487.3 466.4,487.3 466.4,487.3 	"/>
	<polygon fill="#002978" points="401.6,464.8 421.2,431.2 442,395.3 459.8,364.6 480.6,328.7 500.2,295.1 521,259.1 531,242 
		521,224.9 500.2,188.9 480.6,155.3 459.8,119.4 442,88.7 421.2,52.8 401.6,19.2 388.6,-3.3 388.6,-3.3 411.9,-3.3 430.3,-3.3 
		430.3,-3.3 442,16.9 462.9,52.8 480.6,83.4 501.5,119.4 521,153 541.9,188.9 559.6,219.6 572.6,242 559.6,264.4 541.9,295.1 
		521,331 501.5,364.6 480.6,400.6 462.9,431.2 442,467.1 430.3,487.3 430.3,487.3 411.9,487.3 388.6,487.3 388.6,487.3 	"/>
	<polygon fill="#002978" points="323.9,464.8 343.4,431.2 364.3,395.3 382,364.6 402.9,328.7 422.4,295.1 443.3,259.1 453.2,242 
		443.3,224.9 422.4,188.9 402.9,155.3 382,119.4 364.3,88.7 343.4,52.8 323.9,19.2 310.9,-3.3 310.9,-3.3 334.1,-3.3 352.6,-3.3 
		352.6,-3.3 364.3,16.9 385.1,52.8 402.9,83.4 423.7,119.4 443.3,153 464.1,188.9 481.9,219.6 494.9,242 481.9,264.4 464.1,295.1 
		443.3,331 423.7,364.6 402.9,400.6 385.1,431.2 364.3,467.1 352.6,487.3 352.6,487.3 334.1,487.3 310.9,487.3 310.9,487.3 	"/>
	<polygon fill="#002978" points="246.1,464.8 265.7,431.2 286.5,395.3 304.3,364.6 325.1,328.7 344.7,295.1 365.5,259.1 375.4,242 
		365.5,224.9 344.7,188.9 325.1,155.3 304.3,119.4 286.5,88.7 265.7,52.8 246.1,19.2 233.1,-3.3 233.1,-3.3 256.4,-3.3 274.8,-3.3 
		274.8,-3.3 286.5,16.9 307.4,52.8 325.1,83.4 346,119.4 365.5,153 386.4,188.9 404.1,219.6 417.1,242 404.1,264.4 386.4,295.1 
		365.5,331 346,364.6 325.1,400.6 307.4,431.2 286.5,467.1 274.8,487.3 274.8,487.3 256.4,487.3 233.1,487.3 233.1,487.3 	"/>
	<polygon fill="#002978" points="168.4,464.8 187.9,431.2 208.8,395.3 226.5,364.6 247.4,328.7 266.9,295.1 287.7,259.1 297.7,242 
		287.7,224.9 266.9,188.9 247.4,155.3 226.5,119.4 208.8,88.7 187.9,52.8 168.4,19.2 155.4,-3.3 155.4,-3.3 178.6,-3.3 197.1,-3.3 
		197.1,-3.3 208.8,16.9 229.6,52.8 247.4,83.4 268.2,119.4 287.7,153 308.6,188.9 326.4,219.6 339.4,242 326.4,264.4 308.6,295.1 
		287.7,331 268.2,364.6 247.4,400.6 229.6,431.2 208.8,467.1 197.1,487.3 197.1,487.3 178.6,487.3 155.4,487.3 155.4,487.3 	"/>
	<polygon fill="#002978" points="90.6,464.8 110.1,431.2 131,395.3 148.8,364.6 169.6,328.7 189.1,295.1 210,259.1 219.9,242 
		210,224.9 189.1,188.9 169.6,155.3 148.8,119.4 131,88.7 110.1,52.8 90.6,19.2 77.6,-3.3 77.6,-3.3 100.9,-3.3 119.3,-3.3 
		119.3,-3.3 131,16.9 151.8,52.8 169.6,83.4 190.5,119.4 210,153 230.8,188.9 248.6,219.6 261.6,242 248.6,264.4 230.8,295.1 
		210,331 190.5,364.6 169.6,400.6 151.8,431.2 131,467.1 119.3,487.3 119.3,487.3 100.9,487.3 77.6,487.3 77.6,487.3 	"/>
	<polygon fill="#002978" points="12.9,464.8 32.4,431.2 53.2,395.3 71,364.6 91.9,328.7 111.4,295.1 132.2,259.1 142.2,242 
		132.2,224.9 111.4,188.9 91.9,155.3 71,119.4 53.2,88.7 32.4,52.8 12.9,19.2 -0.2,-3.3 -0.2,-3.3 23.1,-3.3 41.5,-3.3 41.5,-3.3 
		53.2,16.9 74.1,52.8 91.9,83.4 112.7,119.4 132.2,153 153.1,188.9 170.9,219.6 183.9,242 170.9,264.4 153.1,295.1 132.2,331 
		112.7,364.6 91.9,400.6 74.1,431.2 53.2,467.1 41.5,487.3 41.5,487.3 23.1,487.3 -0.2,487.3 -0.2,487.3 	"/>
</g>
</svg>
