<?xml version="1.0" encoding="utf-8"?>
<!-- Generator: Adobe Illustrator 21.1.0, SVG Export Plug-In . SVG Version: 6.00 Build 0)  -->
<svg version="1.1" baseProfile="tiny" id="Layer_1" xmlns="http://www.w3.org/2000/svg" xmlns:xlink="http://www.w3.org/1999/xlink"
	 x="0px" y="0px" viewBox="0 0 684 478" overflow="scroll" xml:space="preserve">
<g>
	<polygon fill="#002978" points="607.1,119.7 537.9,0.5 614.7,0.5 683.9,119.7 614.7,239 537.9,239 607.1,119.7 	"/>
	<polygon fill="#002978" points="453.4,119.7 384.2,0.5 461.1,0.5 530.3,119.7 461.1,239 384.2,239 453.4,119.7 	"/>
	<polygon fill="#002978" points="530.3,358.3 461.1,239 537.9,239 607.1,358.3 537.9,477.5 461.1,477.5 530.3,358.3 	"/>
	<polygon fill="#002978" points="376.6,358.3 307.4,239 384.2,239 453.4,358.3 384.2,477.5 307.4,477.5 376.6,358.3 	"/>
	<polygon fill="#002978" points="299.8,119.7 230.6,0.5 307.4,0.5 376.6,119.7 307.4,239 230.6,239 299.8,119.7 	"/>
	<polygon fill="#002978" points="146.1,119.7 76.9,0.5 153.7,0.5 222.9,119.7 153.7,239 76.9,239 146.1,119.7 	"/>
	<polygon fill="#002978" points="222.9,358.3 153.7,239 230.6,239 299.8,358.3 230.6,477.5 153.7,477.5 222.9,358.3 	"/>
	<polygon fill="#002978" points="69.3,358.3 0.1,239 76.9,239 146.1,358.3 76.9,477.5 0.1,477.5 69.3,358.3 	"/>
</g>
</svg>
